<?xml version="1.0" standalone="no"?>
<!DOCTYPE svg PUBLIC "-//W3C//DTD SVG 20010904//EN"
 "http://www.w3.org/TR/2001/REC-SVG-20010904/DTD/svg10.dtd">
<svg version="1.0" xmlns="http://www.w3.org/2000/svg"
 width="400.000000pt" height="400.000000pt" viewBox="0 0 400.000000 400.000000"
 preserveAspectRatio="xMidYMid meet">
<metadata>
Created by potrace 1.14, written by Peter Selinger 2001-2017
</metadata>
<g transform="translate(0.000000,400.000000) scale(0.100000,-0.100000)"
fill="#000000" stroke="none">
<path d="M997 3993 c552 -2 1454 -2 2006 0 551 1 100 2 -1003 2 -1103 0 -1554
-1 -1003 -2z"/>
<path d="M1926 3821 c-3 -5 -24 -9 -47 -9 -55 -1 -102 -12 -114 -27 -5 -8 -28
-19 -51 -27 -22 -7 -41 -17 -42 -22 -1 -12 -120 -48 -234 -73 -72 -15 -86 -22
-139 -70 -33 -29 -70 -55 -84 -59 -13 -3 -40 -21 -59 -39 -19 -18 -70 -53
-113 -78 -43 -25 -103 -69 -133 -98 -30 -30 -66 -61 -79 -70 -21 -13 -22 -18
-12 -38 8 -15 9 -26 3 -34 -6 -7 -15 -31 -21 -54 -6 -23 -23 -55 -36 -71 -14
-17 -25 -34 -25 -40 0 -6 -6 -12 -12 -15 -10 -3 -10 -7 1 -20 7 -10 10 -17 7
-17 -4 0 1 -12 11 -27 11 -16 24 -41 31 -56 16 -38 15 -132 -2 -165 -8 -15
-19 -73 -25 -130 -14 -132 -14 -173 1 -170 6 2 18 -8 26 -22 15 -27 13 -38
-31 -130 -8 -17 -10 -49 -5 -105 8 -80 14 -128 18 -132 2 -2 3 -9 4 -15 1 -7
7 -12 14 -10 7 1 12 -9 12 -22 0 -56 37 -103 61 -79 5 5 12 43 15 84 3 41 7
80 9 87 3 6 1 12 -4 12 -10 0 6 87 35 183 13 43 24 95 24 115 1 71 28 218 47
252 14 24 20 54 20 96 0 33 4 67 9 75 4 8 10 23 11 34 2 11 8 22 13 23 6 2 8
8 4 13 -3 5 0 9 5 9 6 0 11 5 11 10 0 21 53 89 88 113 20 14 80 42 133 61 123
46 202 49 273 11 26 -14 52 -24 59 -22 6 1 13 -8 15 -20 4 -26 6 -27 31 -14
12 7 26 5 45 -5 16 -7 31 -12 35 -10 3 2 42 -2 86 -10 44 -7 120 -13 170 -13
76 -1 103 4 182 31 92 32 93 32 123 14 17 -10 52 -19 78 -19 31 -1 49 -7 53
-17 5 -11 11 -5 23 20 8 19 15 29 16 21 0 -10 3 -11 14 -2 11 9 17 6 30 -14
17 -26 37 -34 33 -12 -2 6 1 2 7 -10 5 -13 14 -23 19 -23 4 0 5 5 2 10 -3 6
-1 10 4 10 6 0 11 -7 11 -15 0 -15 46 -32 57 -21 3 3 12 1 19 -5 8 -6 14 -6
18 0 4 5 2 12 -4 16 -5 3 -10 14 -9 23 0 11 3 12 6 5 2 -7 9 -13 15 -13 13 0
38 -26 32 -33 -3 -3 3 -8 13 -11 27 -8 106 -93 98 -106 -3 -5 1 -10 9 -10 20
0 21 24 1 40 -8 7 -12 16 -9 22 9 14 32 -10 39 -43 4 -16 10 -29 13 -29 10 0
50 -108 56 -148 2 -18 9 -39 15 -46 6 -7 13 -30 17 -52 3 -21 11 -48 16 -58 6
-11 11 -62 12 -115 3 -141 -12 -678 -20 -735 -6 -39 -4 -48 7 -44 26 9 48 63
55 133 4 45 13 77 24 90 25 28 37 127 18 146 -16 16 -11 108 9 144 5 11 11 36
11 55 2 71 33 303 42 321 6 10 10 78 9 151 -1 73 2 152 6 176 6 32 4 47 -7 60
-9 9 -21 34 -27 54 -7 20 -23 43 -35 52 -13 8 -23 23 -22 33 1 13 -6 18 -24
18 -19 0 -26 6 -28 25 -3 24 -3 25 12 5 22 -28 20 -12 -4 32 -11 21 -20 43
-20 50 0 7 -8 21 -17 31 -41 43 -54 64 -49 80 5 14 -1 17 -35 16 -43 -1 -46 7
-25 57 5 12 0 18 -18 23 -17 4 -29 19 -42 51 -15 42 -18 44 -34 30 -15 -14
-18 -13 -33 3 -10 10 -17 23 -17 29 0 6 -7 17 -16 24 -9 8 -28 31 -41 52 -15
24 -30 37 -38 33 -9 -3 -47 30 -101 89 -84 90 -131 124 -153 110 -6 -3 -24 3
-40 14 -16 12 -34 21 -40 21 -18 0 -12 -17 12 -33 32 -21 15 -32 -22 -13 -37
20 -42 20 -35 1 4 -9 0 -15 -10 -15 -9 0 -16 5 -16 11 0 6 -7 8 -15 5 -9 -3
-35 -1 -58 4 -23 5 -81 19 -129 30 -101 23 -95 23 -102 11z m81 -87 c-3 -3
-12 -4 -19 -1 -8 3 -5 6 6 6 11 1 17 -2 13 -5z m258 -5 c11 -17 -1 -21 -15 -4
-8 9 -8 15 -2 15 6 0 14 -5 17 -11z m-655 -69 c0 -12 -17 -12 -45 0 -17 7 -15
9 13 9 17 1 32 -3 32 -9z m253 -15 c26 -3 47 -11 47 -17 0 -7 -12 -8 -32 -3
-44 10 -68 13 -98 14 -20 1 -22 3 -10 11 8 5 22 8 30 6 8 -3 36 -7 63 -11z
m100 -22 c-7 -2 -21 -2 -30 0 -10 3 -4 5 12 5 17 0 24 -2 18 -5z m-128 -83
c-3 -5 -12 -10 -18 -10 -7 0 -6 4 3 10 19 12 23 12 15 0z m-330 -20 c-3 -5
-11 -10 -16 -10 -6 0 -7 5 -4 10 3 6 11 10 16 10 6 0 7 -4 4 -10z m1431 -417
c-10 -10 -19 5 -10 18 6 11 8 11 12 0 2 -7 1 -15 -2 -18z m-306 -134 c0 -4 -7
-6 -15 -3 -8 4 -15 10 -15 15 0 4 7 6 15 3 8 -4 15 -10 15 -15z m485 -49 c3
-5 2 -10 -4 -10 -5 0 -13 5 -16 10 -3 6 -2 10 4 10 5 0 13 -4 16 -10z"/>
<path d="M414 3785 c-3 -8 -1 -29 4 -47 6 -18 13 -83 16 -144 7 -133 23 -190
51 -186 45 7 45 5 41 144 -2 73 -4 152 -5 175 -1 23 -8 49 -17 57 -20 20 -83
21 -90 1z"/>
<path d="M420 3143 c-23 -9 -28 -23 -28 -70 0 -39 4 -47 46 -83 26 -22 57 -40
69 -40 23 0 40 31 27 52 -5 7 -11 37 -15 67 -4 29 -11 57 -16 61 -12 11 -66
20 -83 13z"/>
<path d="M2450 3000 c0 -5 5 -10 11 -10 5 0 7 5 4 10 -3 6 -8 10 -11 10 -2 0
-4 -4 -4 -10z"/>
<path d="M3936 2928 c-30 -17 -3 -68 37 -68 13 0 17 8 17 34 0 37 -23 51 -54
34z"/>
<path d="M0 2842 c0 -26 3 -29 25 -24 31 5 31 12 0 35 l-25 18 0 -29z"/>
<path d="M2850 2780 c0 -18 4 -29 10 -25 6 3 10 15 10 25 0 10 -4 22 -10 25
-6 4 -10 -7 -10 -25z"/>
<path d="M1540 2218 c0 -7 -19 -9 -52 -5 l-53 5 45 -19 c24 -11 47 -23 50 -27
5 -7 9 -10 90 -58 58 -35 83 -61 76 -81 -5 -13 -20 -14 -97 -8 -50 3 -116 10
-147 16 -32 5 -77 9 -102 9 -50 -1 -142 -30 -147 -47 -5 -14 39 -24 97 -22 25
1 67 -6 94 -15 57 -20 87 -24 254 -35 79 -6 130 -14 145 -24 20 -13 25 -13 43
2 30 24 54 63 54 86 0 17 10 24 51 34 27 7 49 15 47 16 -2 2 -29 6 -60 9 -63
5 -78 11 -78 30 0 13 -53 56 -69 56 -10 0 -83 31 -126 53 -37 19 -115 36 -115
25z"/>
<path d="M2395 2110 c-16 -4 -62 -8 -102 -9 -63 -1 -74 -4 -91 -25 -13 -17
-33 -26 -65 -31 -26 -4 -47 -10 -47 -14 1 -3 15 -15 33 -26 18 -11 39 -35 47
-53 10 -24 19 -32 32 -29 11 3 22 -2 28 -14 6 -10 23 -22 38 -25 15 -4 32 -11
39 -16 20 -16 71 -26 81 -16 15 15 264 -18 313 -42 32 -15 46 -17 56 -9 15 13
17 45 3 54 -6 4 -8 10 -5 15 8 13 -51 41 -69 34 -9 -3 -16 -2 -16 4 0 5 -19
12 -42 15 -86 12 -114 19 -165 42 -35 16 -51 28 -48 38 6 13 69 38 129 52 29
6 29 6 8 25 -11 10 -37 22 -58 25 -22 4 -46 8 -54 10 -8 1 -28 -1 -45 -5z"/>
<path d="M771 1844 c0 -11 3 -14 6 -6 3 7 2 16 -1 19 -3 4 -6 -2 -5 -13z"/>
<path d="M1423 1823 c15 -2 39 -2 55 0 15 2 2 4 -28 4 -30 0 -43 -2 -27 -4z"/>
<path d="M1550 1493 c-39 -20 -76 -46 -82 -56 -9 -17 -8 -19 8 -13 41 16 170
105 153 106 -4 0 -39 -17 -79 -37z"/>
<path d="M2290 1457 c0 -14 21 -44 60 -82 89 -88 90 -53 1 53 -47 57 -61 64
-61 29z"/>
<path d="M762 1449 c-28 -11 -22 -25 12 -31 32 -6 51 5 43 26 -7 18 -21 19
-55 5z"/>
<path d="M1380 1400 c-62 -19 -219 -19 -275 0 -34 11 -65 5 -65 -13 0 -6 -6
-3 -13 8 -17 22 -41 11 -34 -15 3 -11 -2 -28 -10 -40 -18 -26 -11 -62 18 -91
15 -15 18 -24 11 -31 -15 -15 15 -59 34 -51 8 3 14 0 14 -6 0 -6 7 -11 15 -11
8 0 15 -9 15 -20 0 -11 7 -20 16 -20 8 0 12 5 9 10 -3 6 -2 10 4 10 5 0 11 -5
13 -11 2 -5 10 -7 19 -4 17 7 19 36 2 57 -6 7 -9 27 -6 44 6 41 45 63 105 61
36 -2 51 3 67 19 10 12 35 31 55 43 20 13 36 26 36 31 0 5 7 16 16 25 24 23
16 24 -46 5z"/>
<path d="M2910 1390 c0 -5 5 -10 11 -10 5 0 7 5 4 10 -3 6 -8 10 -11 10 -2 0
-4 -4 -4 -10z"/>
<path d="M1730 1384 c0 -3 21 -25 47 -48 l47 -43 -21 -29 c-18 -25 -19 -33 -8
-64 13 -40 49 -59 112 -60 57 0 143 21 143 36 0 6 7 14 15 18 8 3 14 11 13 18
-2 7 7 14 20 16 12 2 22 9 22 15 0 7 18 25 40 41 22 17 40 33 40 38 0 15 -40
8 -83 -14 -33 -17 -62 -22 -132 -23 -109 -2 -127 4 -183 61 -38 38 -72 56 -72
38z"/>
<path d="M2880 1359 c0 -4 6 -10 13 -12 9 -4 8 -8 -3 -16 -13 -9 -13 -11 3
-11 9 0 17 -4 17 -10 0 -5 -11 -10 -25 -10 -16 0 -25 -6 -25 -15 0 -8 -3 -15
-8 -15 -4 0 -12 -10 -17 -22 -6 -13 -23 -29 -40 -37 -16 -8 -32 -18 -35 -22
-3 -4 -19 -7 -35 -7 -17 0 -52 -7 -78 -16 -27 -9 -53 -14 -58 -10 -12 7 -39
-20 -39 -40 0 -17 34 -39 43 -29 4 3 13 0 21 -6 8 -7 20 -10 26 -6 5 3 10 -1
10 -10 0 -8 6 -18 14 -21 9 -3 12 -12 9 -21 -4 -9 -7 -39 -7 -67 -1 -33 -5
-50 -12 -49 -7 1 -15 -9 -18 -24 -4 -14 -14 -32 -21 -40 -8 -8 -15 -19 -15
-24 0 -15 18 -10 29 8 5 10 12 15 16 11 4 -3 -1 -19 -9 -35 -9 -15 -21 -36
-26 -45 -6 -10 -14 -26 -18 -35 -5 -9 -17 -21 -28 -27 -10 -6 -22 -15 -27 -21
-4 -6 -17 1 -32 18 -23 26 -25 26 -25 8 0 -12 -4 -20 -9 -19 -5 2 -22 -10 -37
-27 -16 -16 -52 -44 -79 -62 -28 -18 -68 -49 -89 -70 -22 -21 -41 -33 -43 -27
-3 8 -20 4 -53 -12 -117 -56 -357 -54 -418 4 -13 12 -47 17 -87 13 -20 -2
-141 44 -160 61 -5 4 -17 8 -27 8 -14 0 -78 76 -78 94 0 12 -49 56 -63 56 -9
0 -19 5 -22 10 -3 6 -16 10 -28 10 -17 0 -19 2 -8 9 18 12 7 41 -18 48 -13 3
-17 11 -14 20 8 21 -17 34 -54 27 -29 -5 -33 -3 -33 15 0 11 -4 21 -10 21 -5
0 -9 -10 -7 -22 3 -29 -26 -32 -31 -4 -2 11 -10 26 -18 34 -8 7 -14 21 -14 30
1 16 2 16 14 -1 7 -9 18 -17 24 -17 16 0 34 38 25 53 -8 13 -9 18 -11 55 -2
16 -8 22 -26 22 -28 0 -42 15 -25 25 15 10 -29 55 -53 55 -11 0 -16 5 -13 10
3 6 1 10 -4 10 -6 0 -11 -4 -11 -10 0 -5 -7 -10 -16 -10 -11 0 -15 6 -11 20 7
28 -9 34 -26 10 -14 -20 -15 -20 -21 11 -4 22 -10 30 -21 25 -11 -4 -15 1 -15
17 -1 25 -32 67 -50 67 -7 0 -10 7 -6 16 5 14 1 16 -21 11 -59 -12 -82 -28
-144 -100 -35 -41 -76 -82 -91 -91 -26 -16 -31 -16 -84 0 -46 15 -59 16 -76 5
-23 -14 -21 -15 -38 19 -35 69 -69 98 -148 125 -42 15 -102 38 -133 51 -31 13
-66 24 -78 24 l-21 0 0 -425 c0 -234 3 -425 6 -425 3 0 12 7 20 15 9 8 21 15
27 15 6 0 -3 -10 -20 -23 l-32 -22 -1 -227 0 -228 830 0 831 0 26 30 c13 17
31 30 38 30 7 0 16 8 19 17 6 14 10 13 26 -12 14 -22 20 -25 25 -14 7 19 55
23 108 8 35 -9 43 -8 53 5 9 13 17 14 40 6 16 -6 43 -10 60 -8 17 1 38 -3 47
-10 8 -7 22 -10 30 -6 9 3 24 -1 32 -10 9 -9 25 -16 35 -16 10 0 22 -4 25 -10
3 -5 9 -10 13 -10 8 0 32 49 32 66 0 18 77 22 94 5 13 -12 17 -12 32 3 22 23
13 29 -71 51 -38 10 -63 21 -56 23 18 6 113 -15 150 -34 16 -8 54 -15 85 -16
30 -1 53 -5 51 -9 -3 -4 2 -10 10 -13 12 -4 13 -2 6 13 -12 21 13 51 42 51 9
0 18 4 21 9 4 5 22 5 43 1 20 -5 42 -6 47 -2 6 3 5 -2 -3 -11 -8 -11 -28 -17
-51 -17 -24 0 -40 -5 -44 -15 -7 -18 10 -20 18 -2 4 6 4 2 2 -10 -4 -21 -3
-21 20 -6 14 9 24 11 24 5 0 -6 -13 -19 -30 -28 -39 -24 -46 -44 -15 -44 13 0
27 -4 30 -10 12 -20 32 -9 51 27 10 21 25 44 32 51 6 7 12 17 12 22 0 21 69
77 92 75 12 -1 34 4 48 11 14 8 20 14 14 14 -16 0 -26 41 -14 55 6 7 7 14 4
18 -10 9 41 37 113 62 64 23 95 25 63 5 -13 -9 -13 -10 0 -10 13 0 13 -2 1 -9
-11 -7 -10 -10 5 -14 13 -3 11 -5 -8 -6 -33 -1 -38 -21 -5 -21 20 -1 21 -2 5
-14 -22 -16 -22 -22 -1 -30 9 -4 20 -1 25 6 8 10 11 10 15 1 6 -15 84 -18 99
-3 6 6 43 4 104 -5 115 -18 192 -19 277 -4 65 11 153 5 153 -11 0 -5 -10 -11
-22 -13 -22 -4 -22 -4 -2 -6 12 0 25 -8 28 -17 3 -8 2 -12 -4 -9 -9 5 -98 13
-210 19 -31 1 -66 -4 -80 -11 l-25 -13 25 -1 c30 -1 66 -4 168 -14 142 -13
166 -14 177 -6 20 16 116 34 126 24 7 -7 -6 -12 -36 -16 -26 -4 -62 -14 -81
-23 -19 -9 -37 -14 -41 -11 -3 4 -14 2 -24 -3 -12 -7 -20 -7 -24 0 -3 5 -13
10 -22 10 -13 0 -13 -3 -3 -15 7 -9 29 -15 51 -15 31 0 39 -4 39 -19 0 -10 7
-24 15 -31 19 -16 19 -30 -1 -30 -8 0 -12 5 -9 10 4 6 -10 10 -34 10 -21 0
-47 3 -56 6 -14 6 -14 8 1 25 19 22 7 24 -30 7 -38 -17 -103 5 -124 42 -13 23
-26 30 -64 35 -29 4 -54 2 -65 -5 -16 -10 -15 -10 5 -5 13 4 29 1 37 -5 8 -6
23 -9 35 -5 15 5 20 2 20 -13 0 -11 12 -29 27 -40 33 -24 25 -40 -9 -18 -19
12 -26 13 -41 2 -15 -12 -9 -14 44 -20 47 -6 64 -4 70 6 7 10 9 9 9 -4 0 -11
10 -18 33 -21 51 -7 -91 2 -296 18 -139 11 -209 13 -270 5 -124 -15 -205 -28
-216 -34 -5 -4 -12 3 -16 14 -9 28 -23 25 -18 -4 4 -18 0 -25 -14 -29 -10 -2
246 -4 568 -5 l586 -1 2 147 c1 81 4 166 7 189 4 24 3 54 0 68 -6 25 -8 26
-74 19 -37 -3 -70 -8 -73 -10 -4 -2 -48 -4 -98 -5 -50 0 -91 -4 -91 -8 0 -4
11 -23 26 -42 l25 -34 -28 -3 c-15 -2 -29 1 -31 7 -2 6 -12 11 -22 11 -29 0
-50 11 -50 26 0 13 15 18 48 17 6 -1 12 3 12 7 0 13 -29 32 -39 26 -5 -4 -12
-2 -16 4 -3 5 -14 10 -24 10 -9 0 -41 16 -71 35 -39 24 -67 35 -95 35 -30 0
-50 8 -75 30 -36 30 -31 37 15 20 24 -9 26 -8 20 12 -6 19 -5 21 6 11 7 -7 20
-13 29 -13 10 0 5 8 -14 25 -16 14 -33 25 -37 25 -4 0 -14 12 -21 27 -7 15
-24 33 -36 39 -39 19 -49 34 -24 34 12 0 37 -16 57 -35 19 -20 35 -32 35 -28
0 4 6 0 13 -9 18 -23 128 -110 133 -105 7 7 -138 166 -158 172 -10 4 -15 11
-12 17 4 6 -2 8 -17 3 -18 -5 -20 -4 -9 4 12 8 8 17 -25 50 -61 60 -98 110
-139 183 -20 36 -43 72 -52 78 -10 9 -13 23 -8 46 6 35 -13 204 -28 244 -12
31 -25 40 -61 40 l-27 0 6 -67 c5 -58 3 -71 -12 -90 -13 -16 -23 -20 -33 -14
-11 7 -11 20 3 79 18 82 19 93 6 72 -8 -13 -10 -13 -10 2 0 11 -7 16 -20 15
-11 -1 -20 -4 -20 -8z m-190 -289 c0 -5 -4 -10 -10 -10 -5 0 -10 5 -10 10 0 6
5 10 10 10 6 0 10 -4 10 -10z m-1579 -110 c33 -18 21 -28 -21 -18 -22 6 -37
14 -34 19 7 12 31 11 55 -1z m1551 -102 c-6 -6 -15 -8 -19 -4 -4 4 -1 11 7 16
19 12 27 3 12 -12z m-1478 -54 c5 -12 2 -15 -10 -10 -8 3 -18 6 -20 6 -3 0 -2
5 1 10 9 15 22 12 29 -6z m46 -4 c0 -5 -2 -10 -4 -10 -3 0 -8 5 -11 10 -3 6
-1 10 4 10 6 0 11 -4 11 -10z m-1110 -24 c0 -3 -4 -8 -10 -11 -5 -3 -10 -1
-10 4 0 6 5 11 10 11 6 0 10 -2 10 -4z m1147 -2 c-3 -3 -12 -4 -19 -1 -8 3 -5
6 6 6 11 1 17 -2 13 -5z m-1081 -32 c-6 -6 -56 10 -56 18 0 5 13 3 30 -3 16
-6 28 -13 26 -15z m3099 0 c-3 -3 -11 0 -18 7 -9 10 -8 11 6 5 10 -3 15 -9 12
-12z m-3017 -11 c9 -5 26 -13 37 -16 16 -6 17 -8 5 -13 -8 -3 -20 -12 -26 -20
-8 -11 -13 -12 -18 -4 -4 7 -16 12 -27 12 -11 0 -17 5 -14 10 3 6 16 10 28 10
22 1 22 1 3 15 -22 17 -15 20 12 6z m227 -92 c44 -12 89 -25 100 -29 11 -5 35
-12 52 -15 18 -4 36 -11 40 -17 4 -8 0 -9 -13 -4 -35 14 -332 86 -353 86 -12
0 -20 4 -17 9 7 10 81 -2 191 -30z m-310 2 c-6 -6 -35 -12 -65 -15 l-55 -5 55
13 c71 18 76 18 65 7z m2295 -11 c0 -5 -8 -10 -17 -10 -15 0 -16 2 -3 10 19
12 20 12 20 0z m765 0 c-3 -5 -16 -10 -28 -10 -18 0 -19 2 -7 10 20 13 43 13
35 0z m-2780 -23 c7 -6 3 -8 -13 -4 -12 3 -47 -1 -77 -8 -31 -7 -58 -9 -61 -4
-3 5 -29 10 -57 10 -43 1 -35 4 43 13 99 13 148 10 165 -7z m750 13 c3 -5 -1
-10 -10 -10 -9 0 -13 5 -10 10 3 6 8 10 10 10 2 0 7 -4 10 -10z m1932 -32 c-3
-8 -6 -5 -6 6 -1 11 2 17 5 13 3 -3 4 -12 1 -19z m-607 -18 c-8 -5 -11 -10 -6
-10 6 0 -3 -13 -19 -30 -16 -16 -35 -30 -44 -30 -8 0 -23 -8 -35 -17 -19 -18
-20 -18 -1 7 23 32 94 90 109 90 6 0 4 -5 -4 -10z m-1313 -157 c24 -24 42 -43
40 -43 -1 0 -27 9 -57 20 -30 12 -63 24 -73 27 -10 3 -16 11 -13 19 3 7 1 14
-4 16 -5 2 -12 20 -14 40 -3 21 -10 48 -17 60 -7 13 12 -4 42 -37 29 -33 73
-79 96 -102z m1940 109 c3 10 10 15 19 11 8 -3 22 -2 32 2 16 8 53 7 61 -1 2
-1 -4 -10 -13 -19 -19 -19 -21 -45 -4 -45 6 0 9 -2 6 -5 -3 -3 -17 -1 -32 4
-17 7 -26 7 -26 1 0 -6 7 -10 15 -10 8 0 15 -6 15 -14 0 -8 9 -18 21 -21 36
-12 15 -14 -26 -4 -22 6 -48 10 -58 10 -15 0 -16 3 -7 14 15 19 4 52 -21 60
-14 5 -19 15 -18 38 l1 32 16 -35 c11 -25 17 -30 19 -18z m-52 -9 c4 -21 12
-41 18 -45 6 -4 -1 -10 -18 -14 -21 -5 -31 -3 -41 11 -11 15 -11 20 3 30 11 8
13 14 5 19 -7 4 -12 12 -12 17 0 6 5 7 10 4 6 -3 10 -1 10 4 0 27 19 7 25 -26z
m-2880 -3 c-3 -5 -11 -10 -16 -10 -6 0 -7 5 -4 10 3 6 11 10 16 10 6 0 7 -4 4
-10z m115 -19 c0 -12 -25 -21 -56 -21 -14 0 -33 -4 -43 -9 -13 -7 -20 -5 -29
10 -11 18 -10 19 10 14 13 -3 37 -1 53 4 40 12 65 13 65 2z m2627 -11 c-1 -11
-7 -20 -14 -20 -11 0 -11 5 -3 20 6 11 13 20 15 20 2 0 3 -9 2 -20z m316 8
c12 -7 26 -20 31 -28 12 -19 17 -60 8 -60 -13 0 -32 39 -26 55 4 9 1 15 -9 15
-8 0 -20 7 -27 15 -15 18 -7 19 23 3z m-3153 -8 c0 -5 -2 -10 -4 -10 -3 0 -8
5 -11 10 -3 6 -1 10 4 10 6 0 11 -4 11 -10z m320 -10 c0 -5 -5 -10 -11 -10 -5
0 -7 5 -4 10 3 6 8 10 11 10 2 0 4 -4 4 -10z m-390 -21 c-36 -28 -60 -41 -60
-31 0 7 68 52 80 52 3 0 -6 -9 -20 -21z m100 -10 c0 -6 -4 -7 -10 -4 -5 3 -10
11 -10 16 0 6 5 7 10 4 6 -3 10 -11 10 -16z m-46 -4 c18 -14 18 -15 -9 -25
-20 -7 -31 -8 -39 0 -7 7 -2 10 15 11 13 0 18 3 12 6 -14 5 -18 23 -5 23 4 0
16 -7 26 -15z m3021 5 c3 -5 1 -10 -4 -10 -6 0 -11 5 -11 10 0 6 2 10 4 10 3
0 8 -4 11 -10z m-2827 -7 c-10 -2 -26 -2 -35 0 -10 3 -2 5 17 5 19 0 27 -2 18
-5z m2837 -23 c3 -5 1 -10 -4 -10 -6 0 -11 5 -11 10 0 6 2 10 4 10 3 0 8 -4
11 -10z m365 -10 c-9 -16 -8 -20 5 -20 8 0 15 -4 15 -10 0 -12 -30 -13 -46 -2
-14 10 -26 42 -15 42 5 0 11 -6 14 -12 3 -9 7 -7 12 5 4 9 11 17 16 17 6 0 5
-9 -1 -20z m-3157 3 c-7 -2 -19 -2 -25 0 -7 3 -2 5 12 5 14 0 19 -2 13 -5z
m92 -3 c-3 -5 -12 -10 -18 -10 -7 0 -6 4 3 10 19 12 23 12 15 0z m-151 -15
c-18 -15 -18 -15 6 -14 58 4 90 -1 90 -15 0 -11 -7 -12 -34 -5 -18 5 -49 9
-67 9 -19 0 -56 -1 -84 -1 -29 0 -56 -6 -66 -15 -21 -19 -26 -18 -32 5 -3 14
0 20 12 19 9 0 45 7 81 15 36 9 76 16 89 16 24 1 24 1 5 -14z m3116 5 c13 -9
13 -11 0 -20 -8 -5 -19 -10 -25 -10 -5 0 -3 5 5 10 13 9 13 11 0 20 -8 5 -10
10 -5 10 6 0 17 -5 25 -10z m-50 -10 c0 -5 -5 -10 -11 -10 -5 0 -7 5 -4 10 3
6 8 10 11 10 2 0 4 -4 4 -10z m-95 -10 c3 -5 1 -10 -4 -10 -6 0 -11 5 -11 10
0 6 2 10 4 10 3 0 8 -4 11 -10z m-2440 -10 c-28 -12 -37 -12 -30 0 3 6 16 10
28 9 21 0 21 -1 2 -9z m-148 -6 c-3 -3 -12 -4 -19 -1 -8 3 -5 6 6 6 11 1 17
-2 13 -5z m38 -4 c3 -5 -1 -10 -9 -10 -9 0 -16 5 -16 10 0 6 4 10 9 10 6 0 13
-4 16 -10z m2421 -12 l19 -23 -25 20 c-14 11 -27 21 -29 22 -2 2 0 3 6 3 5 0
18 -10 29 -22z m348 13 c4 -5 -3 -7 -14 -4 -23 6 -26 13 -6 13 8 0 17 -4 20
-9z m-3384 -11 c0 -5 -2 -10 -4 -10 -3 0 -8 5 -11 10 -3 6 -1 10 4 10 6 0 11
-4 11 -10z m145 -21 c-4 -5 -13 -9 -22 -9 -13 0 -13 3 -3 15 13 15 35 11 25
-6z m-57 4 c-10 -2 -26 -2 -35 0 -10 3 -2 5 17 5 19 0 27 -2 18 -5z m111 -7
c10 -12 8 -13 -8 -9 -12 3 -21 9 -21 14 0 14 16 11 29 -5z m54 -3 c-7 -2 -19
-2 -25 0 -7 3 -2 5 12 5 14 0 19 -2 13 -5z m-75 -18 c-2 -1 -21 -5 -43 -9
l-40 -6 30 13 c17 8 36 12 43 9 7 -2 12 -6 10 -7z m219 -1 c-3 -3 -12 -4 -19
-1 -8 3 -5 6 6 6 11 1 17 -2 13 -5z m71 -1 c-10 -2 -26 -2 -35 0 -10 3 -2 5
17 5 19 0 27 -2 18 -5z m3072 -3 c0 -5 -2 -10 -4 -10 -3 0 -8 5 -11 10 -3 6
-1 10 4 10 6 0 11 -4 11 -10z m-3217 -7 c-7 -2 -19 -2 -25 0 -7 3 -2 5 12 5
14 0 19 -2 13 -5z m3254 1 c-3 -3 -12 -4 -19 -1 -8 3 -5 6 6 6 11 1 17 -2 13
-5z m-2819 -31 c-10 -2 -26 -2 -35 0 -10 3 -2 5 17 5 19 0 27 -2 18 -5z m227
-12 l60 -8 -65 -1 c-79 -2 -200 9 -200 17 0 8 125 3 205 -8z m2505 -51 c0 -5
-8 -10 -17 -10 -15 0 -16 2 -3 10 19 12 20 12 20 0z m366 -99 c-3 -5 -23 -12
-43 -16 -21 -4 -44 -11 -50 -17 -9 -7 -13 -7 -13 0 0 10 35 24 85 35 11 3 21
5 23 6 2 0 1 -3 -2 -8z m-2036 -11 c0 -5 -7 -10 -15 -10 -8 0 -15 5 -15 10 0
6 7 10 15 10 8 0 15 -4 15 -10z m-253 -16 c-3 -3 -12 -4 -19 -1 -8 3 -5 6 6 6
11 1 17 -2 13 -5z"/>
<path d="M1423 1212 l-23 -7 20 -32 c13 -23 31 -35 62 -44 24 -6 66 -20 93
-30 28 -10 102 -35 165 -56 l115 -38 230 -1 c127 -1 244 -3 260 -5 25 -3 31 0
33 18 2 14 -3 23 -17 28 -12 3 -28 13 -36 21 -13 14 -18 13 -43 -2 -27 -15
-34 -15 -109 0 -82 16 -169 19 -213 7 -16 -5 -39 -1 -65 10 -22 10 -96 25
-165 35 -149 20 -180 32 -180 74 0 30 -1 30 -52 29 -29 -1 -63 -4 -75 -7z"/>
<path d="M2525 1170 c-3 -5 1 -10 10 -10 9 0 13 5 10 10 -3 6 -8 10 -10 10 -2
0 -7 -4 -10 -10z"/>
<path d="M1178 953 c7 -3 16 -2 19 1 4 3 -2 6 -13 5 -11 0 -14 -3 -6 -6z"/>
<path d="M1257 929 c7 -7 15 -10 18 -7 3 3 -2 9 -12 12 -14 6 -15 5 -6 -5z"/>
<path d="M1832 880 c-7 -11 -20 -20 -30 -20 -14 -1 -15 -2 -2 -9 18 -10 239
-35 247 -28 2 3 -5 11 -17 17 -14 7 -19 17 -15 29 5 15 -2 19 -47 24 -93 12
-122 9 -136 -13z"/>
<path d="M2562 837 c2 -8 -12 -28 -29 -46 -18 -18 -33 -41 -33 -52 0 -25 20
-25 27 1 3 11 9 20 13 20 10 0 40 58 40 77 0 7 -5 13 -10 13 -6 0 -10 -6 -8
-13z"/>
<path d="M3010 294 c0 -8 6 -11 15 -8 8 4 15 9 15 13 0 4 -7 8 -15 8 -8 0 -15
-6 -15 -13z"/>
<path d="M3633 223 c15 -2 37 -2 50 0 12 2 0 4 -28 4 -27 0 -38 -2 -22 -4z"/>
<path d="M2826 151 c-4 -5 -5 -25 -4 -45 3 -38 30 -51 42 -20 10 27 7 37 -8
25 -18 -15 -30 1 -21 29 7 21 1 27 -9 11z"/>
<path d="M3590 130 c0 -12 7 -20 18 -21 9 0 34 -2 55 -5 23 -3 37 0 37 7 0 6
-7 8 -16 5 -8 -3 -12 -2 -9 3 7 12 -2 17 -47 25 -34 6 -38 5 -38 -14z"/>
<path d="M2475 82 c-4 -5 -26 -9 -62 -11 -7 -1 -10 -8 -6 -18 4 -10 2 -14 -4
-10 -6 4 -14 0 -17 -9 -9 -23 -7 -34 4 -34 14 0 57 40 44 40 -5 0 0 6 11 12
28 16 96 10 111 -10 7 -10 16 -13 20 -9 12 12 -20 38 -59 47 -20 4 -38 5 -42
2z"/>
<path d="M3405 70 c16 -5 33 -6 37 -2 4 4 -9 9 -30 9 -37 2 -37 2 -7 -7z"/>
<path d="M2313 35 c-8 -9 -9 -16 -3 -20 6 -3 13 1 16 10 9 21 2 26 -13 10z"/>
<path d="M2461 41 c-17 -11 -4 -34 14 -27 8 3 27 1 43 -3 26 -8 29 -7 25 9 -7
26 -55 38 -82 21z"/>
<path d="M2587 26 c-4 -10 -5 -21 -2 -24 9 -9 17 6 13 25 -3 17 -4 17 -11 -1z"/>
</g>
</svg>
